<svg width="177" height="37" viewBox="0 0 177 37" fill="none" xmlns="http://www.w3.org/2000/svg">
<path d="M21.5 0L40.1195 27.75H2.88045L21.5 0Z" fill="#D9D9D9"/>
<path d="M62.5 0L81.1195 27.75H43.8805L62.5 0Z" fill="#D9D9D9"/>
<path d="M89.96 22.14C89.04 22.14 88.2133 21.98 87.48 21.66C86.76 21.3267 86.1933 20.8733 85.78 20.3C85.3667 19.7133 85.1533 19.04 85.14 18.28H87.08C87.1467 18.9333 87.4133 19.4867 87.88 19.94C88.36 20.38 89.0533 20.6 89.96 20.6C90.8267 20.6 91.5067 20.3867 92 19.96C92.5067 19.52 92.76 18.96 92.76 18.28C92.76 17.7467 92.6133 17.3133 92.32 16.98C92.0267 16.6467 91.66 16.3933 91.22 16.22C90.78 16.0467 90.1867 15.86 89.44 15.66C88.52 15.42 87.78 15.18 87.22 14.94C86.6733 14.7 86.2 14.3267 85.8 13.82C85.4133 13.3 85.22 12.6067 85.22 11.74C85.22 10.98 85.4133 10.3067 85.8 9.72C86.1867 9.13333 86.7267 8.68 87.42 8.36C88.1267 8.04 88.9333 7.88 89.84 7.88C91.1467 7.88 92.2133 8.20667 93.04 8.86C93.88 9.51333 94.3533 10.38 94.46 11.46H92.46C92.3933 10.9267 92.1133 10.46 91.62 10.06C91.1267 9.64667 90.4733 9.44 89.66 9.44C88.9 9.44 88.28 9.64 87.8 10.04C87.32 10.4267 87.08 10.9733 87.08 11.68C87.08 12.1867 87.22 12.6 87.5 12.92C87.7933 13.24 88.1467 13.4867 88.56 13.66C88.9867 13.82 89.58 14.0067 90.34 14.22C91.26 14.4733 92 14.7267 92.56 14.98C93.12 15.22 93.6 15.6 94 16.12C94.4 16.6267 94.6 17.32 94.6 18.2C94.6 18.88 94.42 19.52 94.06 20.12C93.7 20.72 93.1667 21.2067 92.46 21.58C91.7533 21.9533 90.92 22.14 89.96 22.14ZM99.0983 13.06C99.4583 12.4333 99.9916 11.9133 100.698 11.5C101.418 11.0733 102.252 10.86 103.198 10.86C104.172 10.86 105.052 11.0933 105.838 11.56C106.638 12.0267 107.265 12.6867 107.718 13.54C108.172 14.38 108.398 15.36 108.398 16.48C108.398 17.5867 108.172 18.5733 107.718 19.44C107.265 20.3067 106.638 20.98 105.838 21.46C105.052 21.94 104.172 22.18 103.198 22.18C102.265 22.18 101.438 21.9733 100.718 21.56C100.012 21.1333 99.4716 20.6067 99.0983 19.98V27.2H97.2783V11.04H99.0983V13.06ZM106.538 16.48C106.538 15.6533 106.372 14.9333 106.038 14.32C105.705 13.7067 105.252 13.24 104.678 12.92C104.118 12.6 103.498 12.44 102.818 12.44C102.152 12.44 101.532 12.6067 100.958 12.94C100.398 13.26 99.9449 13.7333 99.5983 14.36C99.2649 14.9733 99.0983 15.6867 99.0983 16.5C99.0983 17.3267 99.2649 18.0533 99.5983 18.68C99.9449 19.2933 100.398 19.7667 100.958 20.1C101.532 20.42 102.152 20.58 102.818 20.58C103.498 20.58 104.118 20.42 104.678 20.1C105.252 19.7667 105.705 19.2933 106.038 18.68C106.372 18.0533 106.538 17.32 106.538 16.48ZM112.614 12.82C112.934 12.1933 113.387 11.7067 113.974 11.36C114.574 11.0133 115.301 10.84 116.154 10.84V12.72H115.674C113.634 12.72 112.614 13.8267 112.614 16.04V22H110.794V11.04H112.614V12.82ZM119.195 9.26C118.848 9.26 118.555 9.14 118.315 8.9C118.075 8.66 117.955 8.36667 117.955 8.02C117.955 7.67333 118.075 7.38 118.315 7.14C118.555 6.9 118.848 6.78 119.195 6.78C119.528 6.78 119.808 6.9 120.035 7.14C120.275 7.38 120.395 7.67333 120.395 8.02C120.395 8.36667 120.275 8.66 120.035 8.9C119.808 9.14 119.528 9.26 119.195 9.26ZM120.075 11.04V22H118.255V11.04H120.075ZM128.517 10.84C129.85 10.84 130.93 11.2467 131.757 12.06C132.583 12.86 132.997 14.02 132.997 15.54V22H131.197V15.8C131.197 14.7067 130.923 13.8733 130.377 13.3C129.83 12.7133 129.083 12.42 128.137 12.42C127.177 12.42 126.41 12.72 125.837 13.32C125.277 13.92 124.997 14.7933 124.997 15.94V22H123.177V11.04H124.997V12.6C125.357 12.04 125.843 11.6067 126.457 11.3C127.083 10.9933 127.77 10.84 128.517 10.84ZM138.19 12.54V19C138.19 19.5333 138.303 19.9133 138.53 20.14C138.756 20.3533 139.15 20.46 139.71 20.46H141.05V22H139.41C138.396 22 137.636 21.7667 137.13 21.3C136.623 20.8333 136.37 20.0667 136.37 19V12.54H134.95V11.04H136.37V8.28H138.19V11.04H141.05V12.54H138.19ZM149.527 9.26C149.18 9.26 148.887 9.14 148.647 8.9C148.407 8.66 148.287 8.36667 148.287 8.02C148.287 7.67333 148.407 7.38 148.647 7.14C148.887 6.9 149.18 6.78 149.527 6.78C149.86 6.78 150.14 6.9 150.367 7.14C150.607 7.38 150.727 7.67333 150.727 8.02C150.727 8.36667 150.607 8.66 150.367 8.9C150.14 9.14 149.86 9.26 149.527 9.26ZM150.407 11.04V22H148.587V11.04H150.407ZM155.729 12.54V19C155.729 19.5333 155.842 19.9133 156.069 20.14C156.295 20.3533 156.689 20.46 157.249 20.46H158.589V22H156.949C155.935 22 155.175 21.7667 154.669 21.3C154.162 20.8333 153.909 20.0667 153.909 19V12.54H152.489V11.04H153.909V8.28H155.729V11.04H158.589V12.54H155.729Z" fill="white"/>
</svg>
